<?xml version="1.0" encoding="UTF-8" standalone="no" ?>
<!DOCTYPE svg PUBLIC "-//W3C//DTD SVG 1.1//EN" "http://www.w3.org/Graphics/SVG/1.1/DTD/svg11.dtd">
<svg xmlns="http://www.w3.org/2000/svg" xmlns:xlink="http://www.w3.org/1999/xlink" version="1.1" width="1080" height="1080" viewBox="0 0 1080 1080" xml:space="preserve">
<desc>Created with Fabric.js 5.2.4</desc>
<defs>
</defs>
<g transform="matrix(1 0 0 1 540 540)" id="39baf8f0-d986-4b58-984b-a20364b3f961"  >
<rect style="stroke: none; stroke-width: 1; stroke-dasharray: none; stroke-linecap: butt; stroke-dashoffset: 0; stroke-linejoin: miter; stroke-miterlimit: 4; fill: rgb(255,255,255); fill-rule: nonzero; opacity: 1; visibility: hidden;" vector-effect="non-scaling-stroke"  x="-540" y="-540" rx="0" ry="0" width="1080" height="1080" />
</g>
<g transform="matrix(1 0 0 1 540 540)" id="044a55e4-280f-4333-a107-01a729ef00fa"  >
</g>
<g transform="matrix(1 0 0 1 540 540)"  >
<g style=""   >
		<g transform="matrix(1 0 0 1 315.28 45.73)"  >
<path style="stroke: none; stroke-width: 1; stroke-dasharray: none; stroke-linecap: butt; stroke-dashoffset: 0; stroke-linejoin: miter; stroke-miterlimit: 4; fill: rgb(255,255,255); fill-rule: nonzero; opacity: 1;" vector-effect="non-scaling-stroke"  transform=" translate(-855.28, -585.73)" d="M 822.35 678.89 C 832.41 621.42 851.83 493.37 851.83 493.37 C 842.63 468.68 844.2 427.94 852.44 428.24 C 860.6800000000001 428.54 868.3000000000001 456.79 868.3000000000001 456.79 C 868.3000000000001 456.79 890.7900000000001 398.34000000000003 899.0300000000001 401.33000000000004 C 907.2700000000001 404.32000000000005 897.3900000000001 440.58000000000004 897.09 441.73 C 897.51 440.73 911.7800000000001 405.98 921.22 409.40000000000003 C 930.66 412.82000000000005 917.07 447.64000000000004 916.39 449.40000000000003 C 917.1899999999999 447.89000000000004 930.72 422.40000000000003 938.29 425.16 C 945.8599999999999 427.92 928.17 462.56 927.7199999999999 463.45000000000005 C 928.29 462.71000000000004 940.54 446.56000000000006 946.2799999999999 448.99000000000007 C 952.1799999999998 451.4700000000001 911.7599999999999 511.2900000000001 911.7599999999999 511.2900000000001 C 911.7599999999999 511.2900000000001 895.7599999999999 691.5600000000001 889.7599999999999 715.7900000000001 C 882.4599999999999 745.4800000000001 866.4799999999999 770.2400000000001 835.5699999999999 770.2400000000001 C 809.3199999999999 770.2400000000001 780.29 753.8000000000001 763.6899999999999 741.6800000000002" stroke-linecap="round" />
</g>
		<g transform="matrix(1 0 0 1 340.83 -60.27)"  >
<path style="stroke: none; stroke-width: 1; stroke-dasharray: none; stroke-linecap: butt; stroke-dashoffset: 0; stroke-linejoin: miter; stroke-miterlimit: 4; fill: rgb(103,1,123); fill-rule: nonzero; opacity: 1;" vector-effect="non-scaling-stroke"  transform=" translate(-880.83, -479.73)" d="M 885.87 498.64 C 885.2301002212902 498.6320700050411 884.6326358194049 498.31840221925523 884.2627342503134 497.79618823936136 C 883.8928326812219 497.2739742594674 883.7951672131754 496.60628222887914 884 496 C 889.24 480.2 873.36 464.41 873.2 464.26 C 872.410232807742 463.4868013502369 872.396801350237 462.219767192258 873.1700000000001 461.43 C 873.9431986497631 460.640232807742 875.2102328077419 460.62680135023686 876 461.4 C 879.1737536589255 464.65954425891823 881.9069914168543 468.32067084979695 884.13 472.2899999999999 C 889.05 481.03999999999996 890.31 489.67999999999995 887.8 497.28999999999996 C 887.5179484404642 498.1112608023117 886.7381841813656 498.6566917607487 885.87 498.64 Z" stroke-linecap="round" />
</g>
		<g transform="matrix(1 0 0 1 326.53 45.73)"  >
<path style="stroke: none; stroke-width: 1; stroke-dasharray: none; stroke-linecap: butt; stroke-dashoffset: 0; stroke-linejoin: miter; stroke-miterlimit: 4; fill: rgb(103,1,123); fill-rule: nonzero; opacity: 1;" vector-effect="non-scaling-stroke"  transform=" translate(-866.53, -585.73)" d="M 835.58 772.22 C 817.0600000000001 772.22 797.97 764.22 785.21 757.44 C 784.2324559927995 756.9236137589082 783.8586137589083 755.7125440072006 784.375 754.7350000000001 C 784.8913862410918 753.7574559927996 786.1024559927995 753.3836137589083 787.08 753.9000000000001 C 799.44 760.44 817.88 768.2200000000001 835.58 768.2200000000001 C 868.01 768.2200000000001 881.8900000000001 739.4400000000002 887.82 715.2900000000002 C 893.6700000000001 691.4800000000002 909.61 512.9000000000002 909.7700000000001 511.0900000000002 C 909.8019421971347 510.75293902339985 909.9189293746563 510.4295038855462 910.1100000000001 510.1500000000002 C 927.1100000000001 484.9800000000002 944.2800000000001 456.6000000000002 944.8700000000001 450.7000000000002 C 942.0300000000001 450.7600000000002 935.5200000000001 456.5400000000002 929.3400000000001 464.6000000000002 C 928.7140691703222 465.434792479716 927.5515619896745 465.648136494142 926.6700000000002 465.0900000000002 C 925.8008650500333 464.54459262115614 925.4854762839927 463.4299309548758 925.9400000000002 462.5100000000002 C 933.2100000000002 448.3500000000002 939.6600000000002 431.7900000000002 937.9400000000002 427.5100000000002 C 937.7900000000002 427.1300000000002 937.6600000000002 427.0800000000002 937.5800000000002 427.05000000000024 C 934.2400000000001 425.84000000000026 925.7000000000002 436.05000000000024 918.1300000000001 450.35000000000025 C 917.6716036576405 451.3551582446923 916.4851582446921 451.7983963423598 915.4800000000001 451.34000000000026 C 914.474841755308 450.88160365764065 914.0316036576405 449.69515824469227 914.4900000000001 448.6900000000002 C 918.2700000000001 439.0000000000002 924.6500000000001 418.99000000000024 921.7700000000001 412.6900000000002 C 921.5601238929048 412.0808401077818 921.0970345443417 411.5922261494553 920.5000000000001 411.35000000000025 C 915.7000000000002 409.61000000000024 905.5600000000001 426.1900000000002 898.9100000000001 442.56000000000023 C 898.5300187828701 443.5656727953709 897.4229925129683 444.0910426099962 896.4036360536693 443.74946406031023 C 895.3842795943702 443.4078855106242 894.8173153135102 442.32157427133745 895.1200000000001 441.29000000000025 C 900.3600000000001 421.5700000000003 901.7900000000001 404.54000000000025 898.3100000000002 403.29000000000025 C 898.1900000000002 403.29000000000025 894.1100000000001 403.49000000000024 881.9100000000002 429.8200000000003 C 875.5600000000002 443.52000000000027 870.1900000000002 457.4400000000003 870.1400000000002 457.58000000000027 C 869.8316655569614 458.3900670538219 869.0366298025357 458.90932714843444 868.1709478474662 458.86604305068096 C 867.3052658923967 458.8227589529275 866.565991921745 458.22678337206105 866.3400000000003 457.39000000000027 C 862.8100000000003 444.4900000000003 856.4500000000003 430.46000000000026 852.3400000000003 430.3200000000003 C 851.9500000000003 430.3200000000003 851.4700000000003 430.91000000000025 851.2800000000003 431.1700000000003 C 846.2800000000003 438.0700000000003 845.6200000000003 471.1000000000003 853.6900000000003 492.7500000000003 C 853.8079040670141 493.06938862402205 853.8423240609303 493.41358856318413 853.7900000000003 493.7500000000003 C 853.6000000000003 495.03000000000026 834.2500000000003 622.4800000000002 824.3000000000003 679.3100000000003 C 824.1794439189047 680.0163806084095 823.6901815374073 680.6042809673621 823.0174445617124 680.8511256435424 C 822.3447075860175 681.0979703197228 821.5913174857661 680.966031444298 821.0425030849686 680.5052602580213 C 820.493688684171 680.0444890717446 820.2333310615978 679.3253100826374 820.3600000000002 678.6200000000002 C 829.9800000000002 623.6200000000002 848.3600000000002 502.55000000000024 849.7600000000002 493.62000000000023 C 841.6600000000002 471.3800000000002 841.8900000000002 437.31000000000023 848.0400000000002 428.79000000000025 C 848.9802957214065 427.23061075980297 850.6690532289704 426.2780756263231 852.4900000000002 426.28000000000026 C 859.6500000000002 426.54000000000025 865.6300000000002 441.77000000000027 868.4900000000002 450.74000000000024 C 870.7400000000002 445.17000000000024 874.4900000000002 436.04000000000025 878.6900000000003 427.1300000000002 C 891.1000000000003 400.5800000000002 896.2400000000002 398.2600000000002 899.6900000000003 399.49000000000024 C 905.2600000000003 401.49000000000024 904.9000000000003 413.03000000000026 902.8800000000003 424.85000000000025 C 908.2700000000003 415.08000000000027 915.5000000000003 405.2500000000002 921.8800000000003 407.56000000000023 C 929.5300000000003 410.3400000000002 925.8100000000003 425.9000000000002 923.6700000000003 433.7500000000002 C 928.5600000000003 427.0900000000002 934.2600000000003 421.5900000000002 938.9600000000003 423.30000000000024 C 940.2224063755683 423.7588911153205 941.2225947066012 424.7444781568492 941.7000000000003 426.0000000000002 C 943.6200000000002 430.92000000000024 939.5500000000003 442.3900000000002 935.4300000000003 451.85000000000025 C 939.4900000000002 448.2000000000003 943.7700000000003 445.72000000000025 947.0600000000003 447.11000000000024 C 947.8681604671061 447.4571759643715 948.4750806473916 448.15237544360764 948.7100000000003 449.0000000000002 C 949.2000000000003 450.67000000000024 950.2300000000002 454.1300000000002 931.7100000000003 484.0000000000002 C 923.7100000000003 497.0000000000002 915.3200000000003 509.48000000000025 913.7100000000003 511.92000000000024 C 912.5800000000003 524.5700000000003 897.5300000000003 692.5100000000002 891.7100000000003 716.2000000000003 C 882.7100000000003 752.8700000000002 863.3000000000003 772.2200000000003 835.5800000000003 772.2200000000003 Z" stroke-linecap="round" />
</g>
		<g transform="matrix(1 0 0 1 2.94 204.01)"  >
<path style="stroke: none; stroke-width: 1; stroke-dasharray: none; stroke-linecap: butt; stroke-dashoffset: 0; stroke-linejoin: miter; stroke-miterlimit: 4; fill: rgb(255,198,0); fill-rule: nonzero; opacity: 1;" vector-effect="non-scaling-stroke"  transform=" translate(-542.94, -744.01)" d="M 352.9 975.75 C 356.96 860.44 366.46999999999997 747.44 379.37 635.87 L 265.92 641.35 C 252.92000000000002 588.12 270.65000000000003 512.4200000000001 270.65000000000003 512.4200000000001 L 496.5 496 L 583 498.59 C 607.4 499.7 667.1 505.94 705 531.52 C 774.85 578.64 824.72 658.3 824.72 658.3 C 802.51 702.01 774.8100000000001 735.3699999999999 746.47 749.3 C 672.47 671.99 675.89 675.65 675.94 675.3 C 660.4200000000001 768.3 666.2700000000001 876.8599999999999 669.3800000000001 986.66 C 540.19 995.3 428.72000000000014 994.73 352.9000000000001 975.75 Z" stroke-linecap="round" />
</g>
		<g transform="matrix(1 0 0 1 -262.12 -26.8)"  >
<path style="stroke: none; stroke-width: 1; stroke-dasharray: none; stroke-linecap: butt; stroke-dashoffset: 0; stroke-linejoin: miter; stroke-miterlimit: 4; fill: rgb(255,255,255); fill-rule: nonzero; opacity: 1;" vector-effect="non-scaling-stroke"  transform=" translate(-277.88, -513.2)" d="M 263.92 633.93 C 263.92 633.93 187.67000000000002 641 182.10000000000002 582.54 C 177.96000000000004 538.9599999999999 217.10000000000002 509.53999999999996 249.66000000000003 472.53999999999996 C 286.66 430.44999999999993 326.66 392.19999999999993 326.66 392.19999999999993 L 373.96000000000004 429.3599999999999 L 262.73 572.54 Z" stroke-linecap="round" />
</g>
		<g transform="matrix(1 0 0 1 -202.36 -87.75)"  >
<path style="stroke: none; stroke-width: 1; stroke-dasharray: none; stroke-linecap: butt; stroke-dashoffset: 0; stroke-linejoin: miter; stroke-miterlimit: 4; fill: rgb(103,1,123); fill-rule: nonzero; opacity: 1;" vector-effect="non-scaling-stroke"  transform=" translate(-337.64, -452.25)" d="M 262.73 574.54 C 261.9651170438486 574.5411272390725 261.26657623928844 574.1059064585604 260.9304789297375 573.4188214523265 C 260.59438162018654 572.7317364460926 260.67959564050176 571.9131309524837 261.15000000000003 571.31 L 363.5 439.5 C 364.1868857650405 438.66227507585484 365.4158895048742 438.52373352340686 366.2720354397828 439.1875175552189 C 367.12818137469145 439.85130158703095 367.3001885173805 441.0760699313083 366.66 441.95 L 264.31 573.76 C 263.9324147859621 574.2504939571602 263.3489932973821 574.5385121603832 262.73 574.54 Z M 234.74 634.38 C 192.96 627.11 181.97 602.28 180.11 582.73 C 175.86 538.1 215.82000000000002 508.02000000000004 248.11 471.19 C 273.62 442.14 300.67 414.83 314.52 401.13 C 315.3070057685089 400.3512785027386 316.57627850273855 400.35799423149115 317.35499999999996 401.145 C 318.13372149726143 401.9320057685089 318.12700576850887 403.2012785027386 317.34 403.98 C 303.52 417.63 276.53999999999996 444.87 251.10999999999996 473.83000000000004 C 219.21999999999997 510.14000000000004 179.99999999999994 539.83 184.04999999999995 582.35 C 187.17999999999995 615.26 213.68999999999994 626.6600000000001 235.37999999999994 630.44 C 236.08638060840946 630.5605560810952 236.67428096736256 631.0498184625926 236.9211256435431 631.7225554382877 C 237.16797031972362 632.3952924139828 237.03603144429883 633.1486825142345 236.57526025802184 633.6974969150322 C 236.11448907174486 634.2463113158299 235.3953100826373 634.506668938403 234.68999999999994 634.3800000000001 Z M 390.46 444.58 C 390.46 444.47999999999996 392.53 446.2 334.4 400.78 C 328.60763953658045 396.23887256769206 327.5791959800746 387.86823631647957 332.09999999999997 382.05999999999995 L 415.59 275.2099999999999 C 420.12162723886524 269.4084799365564 428.4981777370921 268.3787596722099 434.29999999999995 272.9099999999999 L 490.36999999999995 316.7099999999999 C 496.1623604634195 321.25112743230784 497.19080401992534 329.6217636835203 492.66999999999996 335.42999999999995 L 409.17999999999995 442.28 C 404.64179838997154 448.0775392262864 396.26665114855234 449.1065370177001 390.4599999999999 444.58 Z M 392.93 441.43 C 396.9932025755749 444.5987305204577 402.85500626694903 443.8783103721285 406.03000000000003 439.82 L 489.51 333 C 492.6787305204577 328.9367974244251 491.9583103721285 323.074993733051 487.9 319.9 L 431.84 276.09999999999997 C 427.77679742442507 272.93126947954227 421.9149937330509 273.65168962787146 418.73999999999995 277.71 L 335.24999999999994 384.53 C 332.0870040075414 388.59478816612017 332.8068695568133 394.45207928131407 336.85999999999996 397.63 C 392.99999999999994 441.45 392.92999999999995 441.53 392.92999999999995 441.43 Z" stroke-linecap="round" />
</g>
		<g transform="matrix(0.79 0.62 -0.62 0.79 -127.61 -181.26)"  >
<rect style="stroke: none; stroke-width: 1; stroke-dasharray: none; stroke-linecap: butt; stroke-dashoffset: 0; stroke-linejoin: miter; stroke-miterlimit: 4; fill: rgb(8,199,209); fill-rule: nonzero; opacity: 1;" vector-effect="non-scaling-stroke"  x="-38.65" y="-71.42" rx="3.4" ry="3.4" width="77.3" height="142.84" />
</g>
		<g transform="matrix(1 0 0 1 -88.93 -140.43)"  >
<path style="stroke: none; stroke-width: 1; stroke-dasharray: none; stroke-linecap: butt; stroke-dashoffset: 0; stroke-linejoin: miter; stroke-miterlimit: 4; fill: rgb(255,198,0); fill-rule: nonzero; opacity: 1;" vector-effect="non-scaling-stroke"  transform=" translate(-451.07, -399.57)" d="M 779.67 399.69 C 760.3400337559221 399.69 744.67 384.01996624407775 744.67 364.69 C 744.67 345.36003375592225 760.3400337559221 329.69 779.67 329.69 C 798.9999662440778 329.69 814.67 345.36003375592225 814.67 364.69 C 814.67 384.01996624407775 798.9999662440778 399.69 779.67 399.69 Z M 779.67 333.69 C 762.5491727552453 333.69 748.67 347.5691727552454 748.67 364.69 C 748.67 381.8108272447546 762.5491727552453 395.69 779.67 395.69 C 796.7908272447546 395.69 810.67 381.8108272447546 810.67 364.69 C 810.6589593420654 347.57698376224414 796.7830197992583 333.70999643849706 779.67 333.71 Z M 89.51 469.44 C 88.68851516507273 469.4532781331493 87.94247651172996 468.9628159357594 87.62898936940145 468.20338229518893 C 87.31550222707294 467.44394865461845 87.4983463558799 466.57005228552725 88.09 466 L 145.22 408.88 C 145.72553080972006 408.37446919027997 146.46235801788166 408.17703693489176 147.15292594635497 408.362074053645 C 147.84349387482828 408.5471111723983 148.38288882760173 409.0865061251717 148.567925946355 409.777074053645 C 148.75296306510825 410.4676419821183 148.55553080972007 411.20446919027995 148.05 411.71 L 90.92000000000002 468.84999999999997 C 90.54664970962311 469.22558778677103 90.03957684951966 469.4377672105022 89.51000000000002 469.43999999999994 Z" stroke-linecap="round" />
</g>
		<g transform="matrix(1 0 0 1 7.5 52.08)"  >
<path style="stroke: none; stroke-width: 1; stroke-dasharray: none; stroke-linecap: butt; stroke-dashoffset: 0; stroke-linejoin: miter; stroke-miterlimit: 4; fill: rgb(255,198,0); fill-rule: nonzero; opacity: 1;" vector-effect="non-scaling-stroke"  transform=" translate(-547.5, -592.08)" d="M 146.63 469.44 C 146.10042315048034 469.4377672105023 145.5933502903769 469.2255877867711 145.22 468.85 L 88.09 411.73 C 87.30851707898944 410.9485170789894 87.30851707898944 409.68148292101057 88.09 408.90000000000003 C 88.87148292101058 408.11851707898944 90.13851707898944 408.11851707898944 90.92 408.90000000000003 L 148.05 466.00000000000006 C 148.6416536441201 466.5700522855273 148.8244977729271 467.4439486546185 148.51101063059858 468.203382295189 C 148.19752348827006 468.96281593575947 147.4514848349273 469.45327813314935 146.63000000000002 469.44000000000005 Z M 1005.49 775.84 L 926.9 775.84 C 926.1858351992838 775.8392679089673 925.5262521160896 775.4577808654079 925.169486767449 774.8391126307711 C 924.8127214188085 774.2204443961342 924.8129170367915 773.4584849682294 925.17 772.84 L 964.4599999999999 704.78 C 964.8164855218699 704.1583110683414 965.4783556983763 703.7748743639273 966.1949999999999 703.7748743639273 C 966.9116443016236 703.7748743639273 967.5735144781299 704.1583110683414 967.93 704.78 L 1007.2199999999999 772.8399999999999 C 1007.5770829632083 773.4584849682293 1007.5772785811914 774.2204443961341 1007.2205132325508 774.839112630771 C 1006.8637478839103 775.4577808654078 1006.2041648007161 775.8392679089671 1005.4899999999999 775.8399999999999 Z M 930.37 771.84 L 1002 771.84 L 966.17 709.78 Z" stroke-linecap="round" />
</g>
		<g transform="matrix(1 0 0 1 73.94 -374.17)"  >
<path style="stroke: none; stroke-width: 1; stroke-dasharray: none; stroke-linecap: butt; stroke-dashoffset: 0; stroke-linejoin: miter; stroke-miterlimit: 4; fill: rgb(247,80,40); fill-rule: nonzero; opacity: 1;" vector-effect="non-scaling-stroke"  transform=" translate(-613.94, -165.83)" d="M 566.37 171.34 C 565.8030244373869 171.34284275268263 565.2614860304217 171.10490393925903 564.8800922007355 170.68537072660413 C 564.4986983710492 170.26583751394926 564.3132946045021 169.7041399365093 564.37 169.14000000000001 L 568.9 122.47000000000001 C 569.0049341024678 121.36543050033842 569.9854305003383 120.55506589753216 571.0899999999999 120.66000000000001 C 572.1945694996616 120.76493410246786 573.0049341024678 121.74543050033841 572.9 122.85000000000001 L 568.37 169.53 C 568.2717384365543 170.5597660684618 567.404432990399 171.34467749723237 566.37 171.34 Z M 597.62 183.05 C 596.8712340111014 183.05028721033273 596.1850250391889 182.63230813308118 595.8417697290449 181.9668561207775 C 595.4985144189009 181.30140410847378 595.5557156394063 180.49995711551298 595.99 179.89000000000001 L 623.26 141.73000000000002 C 623.6689831186123 141.13065868459304 624.3704934782887 140.79983436692356 625.0931007150745 140.8655305236495 C 625.8157079518601 140.93122668037546 626.4460556038899 141.3831374585999 626.7402477824595 142.04640826734402 C 627.0344399610291 142.70967907608815 626.9463263056474 143.48026164637517 626.51 144.06000000000003 L 599.25 182.21000000000004 C 598.8745971258761 182.7372576278173 598.2672463691578 183.05024820183166 597.62 183.05000000000004 Z M 614.09 211 C 613.1487742786355 211.00036888496138 612.3346615670289 210.34441235714644 612.1348172688936 209.42464703319854 C 611.9349729707584 208.5048817092506 612.4034844554908 207.57023981940387 613.26 207.18 L 660.6899999999999 185.61 C 661.6951582446919 185.15160365764046 662.8816036576403 185.59484175530798 663.3399999999999 186.60000000000002 C 663.7983963423595 187.60515824469206 663.355158244692 188.79160365764045 662.3499999999999 189.25 C 611.57 212.32 614.73 211 614.09 211 Z" stroke-linecap="round" />
</g>
		<g transform="matrix(1 0 0 1 303.4 -353.42)"  >
<path style="stroke: none; stroke-width: 1; stroke-dasharray: none; stroke-linecap: butt; stroke-dashoffset: 0; stroke-linejoin: miter; stroke-miterlimit: 4; fill: rgb(8,199,209); fill-rule: nonzero; opacity: 1;" vector-effect="non-scaling-stroke"  transform=" translate(-843.4, -186.58)" d="M 971.88 290.47 L 694 290.47 C 693.2213959935494 290.4706366743449 692.5131936681487 290.0193527851594 692.1848733360237 289.3133567768644 C 691.8565530038986 288.6073607685694 691.9677999876322 287.7749955897256 692.47 287.18 L 730.13 242.41 L 730.13 105.87 C 730.1465276270226 93.06936886896021 740.5193688689602 82.69652762702255 753.32 82.68 L 971.6200000000001 82.68 C 984.4229128292301 82.69102749349773 994.7989725065024 93.06708717077007 994.8100000000002 105.87 L 994.8100000000002 267.28 C 994.794582167743 279.97996123719156 984.5789801973739 290.31139646147676 971.8800000000002 290.46999999999997 Z M 698.3199999999999 286.47 L 971.6199999999999 286.47 C 982.2137748200743 286.45897629196634 990.7989762919663 277.87377482007435 990.81 267.28000000000003 L 990.81 105.87 C 990.7989762919663 95.27622517992567 982.2137748200743 86.6910237080337 971.6199999999999 86.68 L 753.35 86.68 C 742.7562251799257 86.6910237080337 734.1710237080337 95.27622517992567 734.16 105.87 L 734.16 243.14000000000001 C 734.1604574335018 243.6119878066947 733.9939748447894 244.0689293799696 733.6899999999999 244.43 Z" stroke-linecap="round" />
</g>
		<g transform="matrix(1 0 0 1 321.41 -351.21)"  >
<path style="stroke: none; stroke-width: 1; stroke-dasharray: none; stroke-linecap: butt; stroke-dashoffset: 0; stroke-linejoin: miter; stroke-miterlimit: 4; fill: rgb(8,199,209); fill-rule: nonzero; opacity: 1;" vector-effect="non-scaling-stroke"  transform=" translate(-861.41, -188.79)" d="M 940 147.42 L 782.82 147.42 C 781.7154305003385 147.42 780.82 146.52456949966157 780.82 145.42 C 780.82 144.3154305003384 781.7154305003385 143.42 782.82 143.42 L 940 143.42 C 941.1045694996616 143.42 942 144.3154305003384 942 145.42 C 942 146.52456949966157 941.1045694996616 147.42 940 147.42 Z M 940 190.79 L 782.82 190.79 C 781.7154305003385 190.79 780.82 189.89456949966157 780.82 188.79 C 780.82 187.6854305003384 781.7154305003385 186.79 782.82 186.79 L 940 186.79 C 941.1045694996616 186.79 942 187.6854305003384 942 188.79 C 942 189.89456949966157 941.1045694996616 190.79 940 190.79 Z M 897.66 234.17 L 782.82 234.17 C 781.7154305003385 234.17 780.82 233.27456949966157 780.82 232.17 C 780.82 231.0654305003384 781.7154305003385 230.17 782.82 230.17 L 897.6600000000001 230.17 C 898.7645694996617 230.17 899.6600000000001 231.0654305003384 899.6600000000001 232.17 C 899.6600000000001 233.27456949966157 898.7645694996617 234.17 897.6600000000001 234.17 Z" stroke-linecap="round" />
</g>
		<g transform="matrix(1 0 0 1 2.94 202.76)"  >
<path style="stroke: none; stroke-width: 1; stroke-dasharray: none; stroke-linecap: butt; stroke-dashoffset: 0; stroke-linejoin: miter; stroke-miterlimit: 4; fill: rgb(103,1,123); fill-rule: nonzero; opacity: 1;" vector-effect="non-scaling-stroke"  transform=" translate(-542.94, -742.76)" d="M 745 750.7 L 646.11 647.3100000000001 C 645.5794965175334 646.800839852792 645.3711662964045 646.0416395884298 645.5675043158521 645.333028706116 C 645.7638423352997 644.6244178238022 646.3331808026621 644.0806897373246 647.0500720378551 643.9171508816427 C 647.766963273048 643.7536120259606 648.515778305885 643.9966399441932 649 644.5500000000001 L 746.89 746.8600000000001 C 773.4 733.2300000000001 800.14 701.9200000000001 822.41 658.4100000000001 C 816.51 649.2700000000001 768.47 576.7400000000001 703.87 533.1400000000001 C 679.43 516.6400000000001 645.87 508.5700000000001 622.01 504.6900000000001 C 621.2680365208038 504.6182742018409 620.6275309269377 504.13987207719697 620.3481876015172 503.448770274909 C 620.0688442760968 502.75766847262105 620.197023700829 501.96856388911334 620.6807532485471 501.40141301038085 C 621.1644827962652 500.83426213164836 621.9234815624075 500.58319066446774 622.65 500.7500000000001 C 646.9 504.6800000000001 681.0699999999999 512.9200000000001 706.11 529.8200000000002 C 775.51 576.6700000000002 825.91 656.4300000000002 826.41 657.2300000000001 C 826.7955242321507 657.8325944541995 826.8298421144209 658.595214060205 826.5 659.2300000000001 C 803.37 704.7600000000001 775.26 737.4000000000001 747.36 751.1400000000001 C 746.5629897217761 751.534267486647 745.6013868231995 751.3549855903021 745 750.7 Z M 669.37 988.72 C 668.288443943434 988.7204868065435 667.4024465754283 987.8610693595779 667.37 986.78 C 664.63 889.92 659.64 796.8399999999999 668.77 712.4 C 668.8468121018302 711.6854688201837 669.2989872573814 711.0661935508361 669.9561954618136 710.7754491924311 C 670.6134036662457 710.484704834026 671.3757993592118 710.5666623710198 671.9561954618136 710.990449192431 C 672.5365915644155 711.4142360138422 672.8468121018302 712.1154688201837 672.77 712.8299999999999 C 663.61 797.55 668.71 892.01 671.38 986.6599999999999 C 671.3962901127179 987.2024904970939 671.1914086481497 987.7283073020561 670.8123802713983 988.1167642453934 C 670.4333518946469 988.5052211887306 669.9127269628877 988.72295820289 669.37 988.7199999999998 Z M 265.92 643.34 C 265.00089270296826 643.3392895649425 264.20058554261476 642.7122447795109 263.98 641.82 C 259.85 624.9300000000001 258.36 604.12 259.55 579.97 C 259.60246705123393 578.8654305003384 260.54043050033846 578.0125329487661 261.64500000000004 578.065 C 262.7495694996616 578.117467051234 263.60246705123393 579.0554305003385 263.55 580.1600000000001 C 262.42 603.1600000000001 263.75 623.0400000000001 267.49 639.2600000000001 L 349 635.3300000000002 C 350.1045694996616 635.2775329487662 351.04253294876605 636.1304305003385 351.095 637.2350000000001 C 351.14746705123395 638.3395694996617 350.2945694996616 639.2775329487662 349.19 639.3300000000002 C 253.64 643.9400000000002 267.23 643.3400000000001 265.92 643.3400000000001 Z M 325.83 510.4 C 324.7254305003384 510.4414213562373 323.7964213562373 509.57956949966155 323.755 508.47499999999997 C 323.7135786437627 507.3704305003384 324.5754305003384 506.4414213562373 325.68 506.4 L 457.49 496.81 C 458.5945694996616 496.72991871127454 459.5549187112745 497.5604305003384 459.63500000000005 498.66499999999996 C 459.7150812887255 499.7695694996616 458.8845694996616 500.72991871127454 457.78000000000003 500.81 Z M 352.9 977.75 C 352.3572129727745 977.750332562562 351.8376022362173 977.5300371889264 351.46045068254443 977.1396853308748 C 351.08329912887154 976.7493334728234 350.88100234860167 976.222454566543 350.9 975.68 C 355.07 857.41 365.21999999999997 733.68 381.9 597.3299999999999 C 382.03530976370854 596.2254305003383 383.0404305003384 595.4396902362914 384.145 595.5749999999999 C 385.24956949966156 595.7103097637084 386.03530976370854 596.7154305003384 385.9 597.8199999999999 C 369.2 734.03 359.04999999999995 857.67 354.9 975.8199999999999 C 354.8622771820961 976.8971402289437 353.977800374717 977.7506603480646 352.9 977.7499999999999 Z" stroke-linecap="round" />
</g>
		<g transform="matrix(1 0 0 1 2.38 -80.05)"  >
<path style="stroke: none; stroke-width: 1; stroke-dasharray: none; stroke-linecap: butt; stroke-dashoffset: 0; stroke-linejoin: miter; stroke-miterlimit: 4; fill: rgb(255,255,255); fill-rule: nonzero; opacity: 1;" vector-effect="non-scaling-stroke"  transform=" translate(-542.38, -459.95)" d="M 591 375.13 L 583 498.56 C 583 498.56 542.14 551.37 507.42 544.09 C 487.33000000000004 539.88 495.32 497.83000000000004 495.32 497.83000000000004 L 509.06 440.40000000000003 Z" stroke-linecap="round" />
</g>
		<g transform="matrix(1 0 0 1 -0.3 -47.39)"  >
<path style="stroke: none; stroke-width: 1; stroke-dasharray: none; stroke-linecap: butt; stroke-dashoffset: 0; stroke-linejoin: miter; stroke-miterlimit: 4; fill: rgb(103,1,123); fill-rule: nonzero; opacity: 1;" vector-effect="non-scaling-stroke"  transform=" translate(-539.7, -492.61)" d="M 507 546.05 C 485.25 541.49 493 499.24999999999994 493.36 497.4599999999999 L 507.12 439.92999999999995 C 507.3888974149954 438.8696755096733 508.45976861839245 438.2221000235187 509.52367572813426 438.4764531371588 C 510.58758283787614 438.7308062507988 511.2497611188402 439.79270976277763 511.01 440.85999999999996 L 497.27 498.29999999999995 C 496.0782980746764 505.2497276719967 495.5991477877634 512.3029539234087 495.84 519.3499999999999 C 496.47999999999996 532.9399999999999 500.51 540.5999999999999 507.84 542.1299999999999 C 539.23 548.7199999999999 576.8399999999999 503.01999999999987 581.05 497.8099999999999 L 583.66 453.07999999999987 C 583.7235127462305 451.9754305003383 584.6704305003384 451.1314872537693 585.775 451.1949999999999 C 586.8795694996616 451.25851274623045 587.7235127462305 452.2054305003383 587.66 453.3099999999999 L 585 498.68 C 584.9808665543309 499.0803439740954 584.8375692094851 499.46480026514513 584.59 499.78000000000003 C 577.0623598055093 509.1451910225281 568.6722226129756 517.7830816676747 559.5300000000001 525.58 C 545 537.87 525.57 549.94 507 546.05 Z" stroke-linecap="round" />
</g>
		<g transform="matrix(1 0 0 1 -28.76 -188.59)"  >
<path style="stroke: none; stroke-width: 1; stroke-dasharray: none; stroke-linecap: butt; stroke-dashoffset: 0; stroke-linejoin: miter; stroke-miterlimit: 4; fill: rgb(255,255,255); fill-rule: nonzero; opacity: 1;" vector-effect="non-scaling-stroke"  transform=" translate(-511.24, -351.41)" d="M 537.34 446.34 C 511.29 457.9 481.97 462.07 457.34000000000003 456.66999999999996 C 403.06 444.75 415.72 372 419.79 326 C 426.47 250.62 481.72 234.12 534.79 248.57 C 587.8599999999999 263.02 618.3599999999999 320.84 602.88 377.7 C 598.6 393.43 589.67 407.4 577.88 419.13" stroke-linecap="round" />
</g>
		<g transform="matrix(1 0 0 1 -28.69 -188.58)"  >
<path style="stroke: none; stroke-width: 1; stroke-dasharray: none; stroke-linecap: butt; stroke-dashoffset: 0; stroke-linejoin: miter; stroke-miterlimit: 4; fill: rgb(103,1,123); fill-rule: nonzero; opacity: 1;" vector-effect="non-scaling-stroke"  transform=" translate(-511.31, -351.42)" d="M 457 458.62 C 405.75 447.37 412 384.5 416.62 338.62 C 417.07 334.14 417.49 329.92 417.85 325.85 C 420.72 293.46000000000004 432.44 269.85 452.70000000000005 255.78000000000003 C 473.75000000000006 241.12000000000003 503.12000000000006 237.88000000000002 535.3900000000001 246.67000000000002 C 588.7700000000001 261.2 620.8800000000001 319.51 604.8800000000001 378.26 C 600.69 393.68 592.0900000000001 407.90999999999997 579.3300000000002 420.58 C 578.5457556552404 421.3587214972614 577.2787214972616 421.35424434475976 576.5000000000001 420.57 C 575.7212785027388 419.7857556552403 575.7257556552404 418.5187214972614 576.5100000000001 417.74 C 588.7700000000001 405.58 597.0100000000001 391.94 601.0200000000001 377.21000000000004 C 616.1300000000001 321.71000000000004 586.6800000000001 264.78000000000003 534.3400000000001 250.53000000000003 C 503.1800000000001 242.00000000000003 475.0000000000001 245.06000000000003 454.9300000000002 259.00000000000006 C 435.70000000000016 272.40000000000003 424.5500000000002 295.00000000000006 421.7900000000002 326.1500000000001 C 417.4200000000002 375.3700000000001 406.1500000000002 443.3500000000001 457.7900000000002 454.69000000000005 C 481.4900000000002 459.89000000000004 510.1800000000002 456.1700000000001 536.5200000000002 444.4800000000001 C 537.1797877525361 444.1403922331875 537.9733710697597 444.1940055012649 538.58148517687 444.61927076719775 C 539.1895992839806 445.0445360331306 539.5122690285981 445.77153885279364 539.4196818489986 446.50780030625265 C 539.327094669399 447.2440617597116 538.8344720795724 447.8685390194113 538.1400000000002 448.13000000000005 C 513.2200000000003 459.2300000000001 483.3200000000002 464.4100000000001 457.0000000000002 458.62000000000006 Z" stroke-linecap="round" />
</g>
		<g transform="matrix(1 0 0 1 -62.8 -166.4)"  >
<path style="stroke: none; stroke-width: 1; stroke-dasharray: none; stroke-linecap: butt; stroke-dashoffset: 0; stroke-linejoin: miter; stroke-miterlimit: 4; fill: rgb(103,1,123); fill-rule: nonzero; opacity: 1;" vector-effect="non-scaling-stroke"  transform=" translate(-477.2, -373.6)" d="M 465 393.58 C 464.31 393.58 455.57 393.46 453.44 387.51 C 451.36 381.71999999999997 461.8 373.92 465.05 371.65999999999997 C 465.9585084134717 371.0303953851929 467.2053953851929 371.25649158652834 467.83500000000004 372.16499999999996 C 468.4646046148071 373.07350841347164 468.23850841347166 374.3203953851929 467.33 374.95 C 461.97999999999996 378.65999999999997 456.52 384.25 457.2 386.15999999999997 C 458.12 388.71 462.45 389.58 465.01 389.58 C 466.11456949966157 389.58 467.01 390.4754305003384 467.01 391.58 C 467.01 392.68456949966156 466.11456949966157 393.58 465.01 393.58 Z M 442.29 358.77 C 441.6702915302885 358.76879741846153 441.08614738262895 358.4803894738277 440.708398343864 357.9891199985428 C 440.33064930509914 357.4978505232579 440.20197287583966 356.8592223808104 440.36 356.26 L 442.36 348.82 C 442.5162129982701 348.1041804508817 443.0513272924474 347.5310727604511 443.7547677685674 347.32620298648595 C 444.4582082446874 347.1213332125208 445.2173651409171 347.31749778518997 445.7334993809881 347.8375031447342 C 446.2496336210592 348.3575085042784 446.4401202269936 349.1181099673477 446.23 349.82 L 444.23 357.26 C 444.0055319447073 358.14827374481905 443.20619646510795 358.7704369273938 442.29 358.77 Z M 446 327.7 C 445.2105289433526 327.6981379580503 444.49602540056054 327.2320359623352 444.17619217664304 326.51025017322405 C 443.85635895272554 325.7884643841129 443.991050724897 324.9460722488331 444.52 324.36 C 446.46 322.21000000000004 451.62 319.03000000000003 457.21999999999997 322.36 C 458.1123001762387 322.9495380225841 458.38291789427313 324.13672982101485 457.83425801763593 325.0547314682664 C 457.2855981409987 325.97273311551794 456.1118317361867 326.2966632661834 455.16999999999996 325.79 C 450.94999999999993 323.26000000000005 447.62999999999994 326.86 447.48999999999995 327.01000000000005 C 447.11499906922194 327.4426789818514 446.57253769963626 327.69388592481386 445.99999999999994 327.70000000000005 Z M 498.46 368.64 C 497.83800470365424 368.6396214744262 497.25159087745925 368.3498783232608 496.87339612668666 367.85606963313285 C 496.495201375914 367.36226094300486 496.3682810778245 366.72060409769523 496.53 366.12 L 498.53 358.68 C 498.68621299827004 357.9641804508817 499.22132729244737 357.3910727604511 499.92476776856734 357.18620298648597 C 500.62820824468736 356.98133321252084 501.38736514091704 357.17749778519 501.9034993809881 357.69750314473424 C 502.4196336210592 358.21750850427844 502.61012022699356 358.97810996734773 502.4 359.68 L 500.4 367.12 C 500.17941445738523 368.01224477951087 499.37910729703174 368.6392895649425 498.46 368.64 Z M 512.11 338.4 C 511.4300158294989 338.39886720818987 510.7971910180314 338.0523202876243 510.43 337.47999999999996 C 510.14 337.03999999999996 507.5 333.25999999999993 503.05 334.97999999999996 C 502.3748831029618 335.29165410515014 501.58259904047884 335.2030372396341 500.99302091360374 334.7499271666564 C 500.40344278672865 334.2968170936786 500.1139136682473 333.5540251483333 500.24132670464485 332.82144271332726 C 500.36873974104236 332.08886027832125 500.8920582352119 331.4874413409917 501.6 331.25999999999993 C 507.69 328.88999999999993 512.24 332.87999999999994 513.8000000000001 335.3299999999999 C 514.1901325673898 335.9460827907047 514.2140303846475 336.7256726086728 513.8623661076331 337.3644946976872 C 513.5107018306186 338.0033167867015 512.8392197292319 338.40010788724 512.11 338.3999999999999 Z M 449.62 409.76 C 449.4418809341488 409.0348830011508 449.68251715320275 408.2709279689125 450.2440550746359 407.7787936108025 C 450.8055929960691 407.2866592526925 451.5945112682575 407.14830810159486 452.29 407.42 C 455.29 408.6 468.15000000000003 411.42 483.18 410.17 C 483.8529002039364 410.1134274770018 484.5089117640121 410.4002314336982 484.92432711460015 410.9326083878499 C 485.33974246518824 411.4649853420015 485.45846163219045 412.17104018117203 485.24 412.81 C 478.72 431.89 454.79 430.57 449.62 409.76 Z M 454.7 412.28 C 456.4 416.2 460.07 421.78 467.31 422.28 C 474.55 422.78 478.31 417.83 480.19 414.4 C 471.63687528205855 414.8292893697583 463.06469244747325 414.1163420331824 454.7 412.28 Z" stroke-linecap="round" />
</g>
		<g transform="matrix(1 0 0 1 -13.31 -224.63)"  >
<path style="stroke: none; stroke-width: 1; stroke-dasharray: none; stroke-linecap: butt; stroke-dashoffset: 0; stroke-linejoin: miter; stroke-miterlimit: 4; fill: rgb(103,1,123); fill-rule: nonzero; opacity: 1;" vector-effect="non-scaling-stroke"  transform=" translate(-526.69, -315.37)" d="M 483.35 412.16 C 467.72 413.49 454.66 410.51000000000005 451.56 409.28000000000003 C 452.81 414.33000000000004 457.17 423.59000000000003 467.18 424.28000000000003 C 476.38 424.87 481.51 417.54 483.35 412.16 Z M 584.3 444.73 C 581.2099999999999 440.73 582.7299999999999 431.06 585.4799999999999 415.59000000000003 C 588.43 398.99 592.0799999999999 378.47 584.5799999999999 375.13000000000005 C 582.6399999999999 376.57000000000005 579.8899999999999 379.13000000000005 577.2199999999999 381.58000000000004 C 569.5899999999999 388.58000000000004 567.43 390.32000000000005 565.3699999999999 389.51000000000005 C 564.4728814464819 389.1435764264156 563.871371200739 388.2881819860409 563.8299999999999 387.32000000000005 C 561.5899999999999 357.44000000000005 538.8299999999999 346.53000000000003 545.43 312.07000000000005 C 527.89 315.86000000000007 471.31999999999994 314.89000000000004 427.34999999999997 291.96000000000004 C 396.76 279.88000000000005 396.03 228.96000000000004 415.57 208.66000000000003 C 456.43 166.17000000000002 591.4300000000001 177.40000000000003 613.91 254.34000000000003 C 672.91 269.84000000000003 659.3199999999999 402.03000000000003 588.91 446.27000000000004 C 587.61 447.11 585.4 446.14000000000004 584.3 444.73 Z M 584.75 370.97 C 596.92 374.1 592.93 396.52000000000004 589.42 416.29 C 588.64 420.67 584.81 439.83000000000004 587.5799999999999 442.41 C 655.79 398.64000000000004 667.1999999999999 270.86 611.8499999999999 258 C 611.1330366243477 257.8349141538521 610.5645993286802 257.2895216134143 610.3699999999999 256.58 C 589.81 181.79999999999998 457.4699999999999 170.92 418.4599999999999 211.48999999999998 C 400.69999999999993 229.95 401.13999999999993 277.49 428.9099999999999 288.33 C 430.9099999999999 289.10999999999996 456.1699999999999 304.15999999999997 501.7899999999999 308.7 C 525.1899999999999 311.03 542.5099999999999 309.36 547.3399999999999 307.43 C 548.0205408035267 307.1758635325807 548.7853723669532 307.31072119685604 549.3379550671641 307.7822861327503 C 549.890537767375 308.25385106864456 550.1439733272438 308.987965723873 549.9999999999999 309.7 C 541.8599999999999 344.11 564.2499999999999 354.58 567.5799999999999 384.7 C 571.78 381.46 579.2099999999999 373.78999999999996 583.1299999999999 371.21999999999997 C 583.6140003601172 370.9192295748964 584.2033170881936 370.8391989081206 584.7499999999999 370.99999999999994 Z M 567.82 386.97 Z" stroke-linecap="round" />
</g>
		<g transform="matrix(1 0 0 1 -13.32 -224.63)"  >
<path style="stroke: none; stroke-width: 1; stroke-dasharray: none; stroke-linecap: butt; stroke-dashoffset: 0; stroke-linejoin: miter; stroke-miterlimit: 4; fill: rgb(103,1,123); fill-rule: nonzero; opacity: 1;" vector-effect="non-scaling-stroke"  transform=" translate(-526.68, -315.37)" d="M 548.08 309.24 C 539.5500000000001 345.34000000000003 563.48 355.87 565.83 387.17 C 566.08 390.53000000000003 578.9200000000001 376.41 584.26 372.91 C 602.9 377.70000000000005 575.61 443.67 587.88 444.58000000000004 C 657.64 400.72 670.27 269.52000000000004 612.3 256 C 591.24 179.42000000000002 456.9 168.57 416.99999999999994 210.05 C 398.44999999999993 229.34 398.81999999999994 278.65 428.16999999999996 290.14 C 475.40999999999997 314.82 536.75 313.77 548.0799999999999 309.24 Z" stroke-linecap="round" />
</g>
		<g transform="matrix(1 0 0 1 63.23 -141.24)"  >
<path style="stroke: none; stroke-width: 1; stroke-dasharray: none; stroke-linecap: butt; stroke-dashoffset: 0; stroke-linejoin: miter; stroke-miterlimit: 4; fill: rgb(255,255,255); fill-rule: nonzero; opacity: 1;" vector-effect="non-scaling-stroke"  transform=" translate(-603.23, -398.76)" d="M 575.09 419.61 C 578.97 424.53000000000003 584 428.79 590.51 430.61 C 606.68 435.01 624.71 421.43 630.4399999999999 400.38 C 634.8399999999999 384.21 623.14 365.69 606.3 366.09 C 599.55 366.25 591.53 368.60999999999996 584.3 372.95" stroke-linecap="round" />
</g>
		<g transform="matrix(1 0 0 1 63.24 -141.29)"  >
<path style="stroke: none; stroke-width: 1; stroke-dasharray: none; stroke-linecap: butt; stroke-dashoffset: 0; stroke-linejoin: miter; stroke-miterlimit: 4; fill: rgb(103,1,123); fill-rule: nonzero; opacity: 1;" vector-effect="non-scaling-stroke"  transform=" translate(-603.24, -398.71)" d="M 573.52 420.85 C 572.8351669102098 419.98291294276567 572.9829129427657 418.7248330897902 573.85 418.04 C 574.7170870572343 417.35516691020985 575.9751669102097 417.50291294276565 576.66 418.37 C 594.4499999999999 440.91 621.4399999999999 425.8 628.51 399.81 C 632.51 385.03000000000003 621.91 367.67 606.34 368.05 C 599.71 368.21000000000004 592.0300000000001 370.61 585.2800000000001 374.63 C 584.3454167425124 375.0523791845305 583.2427974248686 374.6993623827125 582.7273111872134 373.8127260539457 C 582.2118249495584 372.9260897251789 582.4505557179041 371.7932182222042 583.2800000000001 371.19 C 590.6000000000001 366.83 598.9900000000001 364.19 606.2800000000001 364.05 C 624.6300000000001 363.63 637.1100000000001 383.58000000000004 632.4000000000001 400.86 C 624.4000000000001 430.17 593.4000000000001 446 573.5200000000001 420.85 Z" stroke-linecap="round" />
</g>
		<g transform="matrix(1 0 0 1 62.13 -142.05)"  >
<path style="stroke: none; stroke-width: 1; stroke-dasharray: none; stroke-linecap: butt; stroke-dashoffset: 0; stroke-linejoin: miter; stroke-miterlimit: 4; fill: rgb(103,1,123); fill-rule: nonzero; opacity: 1;" vector-effect="non-scaling-stroke"  transform=" translate(-602.13, -397.95)" d="M 591.27 414.29 C 590.334287729937 414.29860653059376 589.5176897475741 413.6572601773833 589.3043013461742 412.74616363208025 C 589.0909129447742 411.8350670867772 589.5377837551272 410.8978030426412 590.38 410.49 C 601.2 405.11 596.08 397.49 587.53 399.49 C 586.8798157655247 399.6423260843434 586.1965014740323 399.46009682982077 585.708510854109 399.00423727952204 C 585.2205202341858 398.5483777292234 584.9922431873097 397.8790381203318 585.1 397.22 C 587.1 384.81 595.0400000000001 382.17 599.59 381.71000000000004 C 607.95 380.85 617.2800000000001 385.79 619.0600000000001 390.43000000000006 C 619.4548835961291 391.46277248218365 618.9377724821836 392.62011640387107 617.9050000000001 393.0150000000001 C 616.8722275178164 393.4098835961291 615.7148835961291 392.89277248218366 615.32 391.86000000000007 C 613.62 387.4200000000001 594.32 378.86000000000007 589.6400000000001 395.1700000000001 C 600.8500000000001 394.7100000000001 606.0500000000001 407.1700000000001 592.1600000000001 414.0400000000001 C 591.8869277896248 414.191693716125 591.5821193404698 414.2773140670113 591.2700000000001 414.2900000000001 Z" stroke-linecap="round" />
</g>
		<g transform="matrix(1 0 0 1 -159.52 -207.99)"  >
<path style="stroke: none; stroke-width: 1; stroke-dasharray: none; stroke-linecap: butt; stroke-dashoffset: 0; stroke-linejoin: miter; stroke-miterlimit: 4; fill: rgb(255,255,255); fill-rule: nonzero; opacity: 1;" vector-effect="non-scaling-stroke"  transform=" translate(-380.48, -332.01)" d="M 399.31 307.45 C 409.31 313.83 410.96 320.13 408.74 322.75 C 403.63 328.75 389.11 322.86 389.11 322.86 C 389.11 322.86 400.59000000000003 331.34000000000003 396.11 337.25 C 391.86 342.82 378.74 335.97 378.74 335.97 C 378.74 335.97 385.74 344.97 381.04 347.90000000000003 C 374.34000000000003 352.09000000000003 365.6 346.02000000000004 365.6 346.02000000000004 C 371.33000000000004 354.52000000000004 365.44 364.57000000000005 354.13 354.45000000000005 C 347.74 348.73 353.65 337.37000000000006 358.85 337.31000000000006 C 358.52000000000004 332.5300000000001 360.56 323.51000000000005 369.08000000000004 324.5400000000001 C 368.98 318.1400000000001 373.92 311.5400000000001 380.17 313.75000000000006 C 380.17 308.08000000000004 388.65000000000003 305.07000000000005 392.74 305.34000000000003 C 395.0749800347746 305.4668051984465 397.33781905749566 306.1935312772808 399.31 307.45000000000005 Z" stroke-linecap="round" />
</g>
		<g transform="matrix(1 0 0 1 -159.54 -207.99)"  >
<path style="stroke: none; stroke-width: 1; stroke-dasharray: none; stroke-linecap: butt; stroke-dashoffset: 0; stroke-linejoin: miter; stroke-miterlimit: 4; fill: rgb(103,1,123); fill-rule: nonzero; opacity: 1;" vector-effect="non-scaling-stroke"  transform=" translate(-380.46, -332.01)" d="M 362.59 360.68 C 360.17999999999995 360.68 356.9 359.62 352.78 355.94 C 345.78 349.71 350.54999999999995 337.94 356.78 335.69 C 356.98999999999995 329.04 360.39 322.83 367.15 322.48 C 367.92999999999995 316.36 372.51 310.77000000000004 378.53 311.36 C 379.04238446609355 309.92101329826966 379.9049980120186 308.63224804041346 381.03999999999996 307.61 C 384.322933759477 304.8065007412782 388.5132943758149 303.292426421889 392.83 303.35 C 395.5067919408397 303.49327336745694 398.1009227321565 304.3269780839226 400.35999999999996 305.77000000000004 C 406.88999999999993 309.93000000000006 410.84 314.6 411.49999999999994 318.94000000000005 C 411.8484635823701 320.7441174398564 411.3919222628662 322.61045835398824 410.24999999999994 324.05000000000007 C 406.96999999999997 327.9200000000001 401.11999999999995 327.88000000000005 396.11999999999995 326.94000000000005 C 398.91999999999996 330.58000000000004 400.40999999999997 334.8500000000001 397.65999999999997 338.46000000000004 C 394.47999999999996 342.63000000000005 388.16999999999996 341.65000000000003 383.46999999999997 340.12000000000006 C 385.02 343.69000000000005 385.34999999999997 347.5300000000001 382.05999999999995 349.6000000000001 C 377.80999999999995 352.2600000000001 373.05999999999995 351.49000000000007 369.50999999999993 350.2200000000001 C 370.66999999999996 355.6900000000001 367.99999999999994 360.68000000000006 362.5899999999999 360.68000000000006 Z M 367.73999999999995 326.46000000000004 C 366.2404024931139 326.4120290105555 364.7833040873397 326.9624884082924 363.68999999999994 327.99 C 361.42999999999995 330.14 360.61999999999995 334.25 360.81999999999994 337.17 C 360.8588941334723 337.7242435687632 360.6654791790121 338.2696886106063 360.2861084085037 338.6756153350502 C 359.9067376379953 339.0815420594942 359.37560492195126 339.3113630250907 358.81999999999994 339.31 C 357.4099999999999 339.31 355.1599999999999 341.31 353.97999999999996 344.42 C 353.49999999999994 345.7 352.18999999999994 350.07 355.41999999999996 352.96000000000004 C 359.27 356.41 362.77 357.59000000000003 364.54999999999995 356.03000000000003 C 366.16999999999996 354.63000000000005 366.37999999999994 350.83000000000004 363.9 347.14000000000004 C 363.36204983454144 346.3417952573326 363.4689899484044 345.27361828619104 364.15450134216496 344.59789991234135 C 364.84001273592554 343.9221815384916 365.909617768226 343.8306211512721 366.7 344.38000000000005 C 366.77 344.43000000000006 374.44 349.64000000000004 379.93 346.21000000000004 C 382.06 344.87000000000006 378.66 339.21000000000004 377.11 337.21000000000004 C 376.52908438115725 336.4667120165727 376.5465449855332 335.41856249907534 377.15189554237134 334.6950359371174 C 377.7572460992095 333.9715093751595 378.7858661636376 333.7693632725723 379.62 334.21000000000004 C 383.41 336.21000000000004 392.04 339.21000000000004 394.47 336.04 C 395.0030556359946 335.36602822159654 395.2215152927234 334.49583058896036 395.07000000000005 333.65000000000003 C 394.57000000000005 330.12000000000006 389.72 325.83000000000004 387.90000000000003 324.48 C 387.0938217921149 323.87973926305733 386.8583672873728 322.7744061109176 387.34992789392163 321.89770523532025 C 387.84148850047046 321.02100435972284 388.9073463907908 320.64530879325395 389.84000000000003 321.02000000000004 C 393.26000000000005 322.41 403.79 325.48 407.19000000000005 321.47 C 407.5686844698658 320.9065573921294 407.69551122822253 320.2108220320013 407.5400000000001 319.55 C 406.74000000000007 314.26 398.00000000000006 309.02000000000004 398.2000000000001 309.15000000000003 C 396.50930535746767 308.0680715180684 394.5648715408004 307.44750753402565 392.5600000000001 307.35 C 388.9600000000001 307.1 382.1500000000001 309.83000000000004 382.1200000000001 313.78000000000003 C 382.11533326405487 314.42734176506576 381.7976319014278 315.03238872286335 381.26738839903703 315.4037577676089 C 380.7371448966463 315.7751268123545 380.0599470141117 315.86688194761024 379.4500000000001 315.65000000000003 C 374.67000000000013 313.93 370.9500000000001 319.46000000000004 371.0300000000001 324.52000000000004 C 371.0375852138473 325.0998386879633 370.7931298935311 325.6544238922627 370.36000000000007 326.04 C 369.55000000000007 326.79 368.7900000000001 326.46000000000004 367.74000000000007 326.46000000000004 Z" stroke-linecap="round" />
</g>
		<g transform="matrix(1 0 0 1 310.31 406.3)"  >
<path style="stroke: none; stroke-width: 1; stroke-dasharray: none; stroke-linecap: butt; stroke-dashoffset: 0; stroke-linejoin: miter; stroke-miterlimit: 4; fill: rgb(247,80,40); fill-rule: nonzero; opacity: 1;" vector-effect="non-scaling-stroke"  transform=" translate(-850.31, -946.3)" d="M 850.31 1050.6 C 832.1054024864227 1050.607286261087 814.2159353294003 1045.8496326328943 798.42 1036.8 C 797.4617859590435 1036.2477152501692 797.1327152501691 1035.0232140409564 797.685 1034.065 C 798.2372847498308 1033.1067859590435 799.4617859590435 1032.7777152501692 800.42 1033.33 C 846.4272656774141 1059.7562252190098 905.052127998496 1045.8581187817927 934.3002797859781 1001.5912068559037 C 963.5484315734603 957.3242949300148 953.3390508895437 897.9458443712734 910.9853466963564 865.9899745575135 C 868.6316425031689 834.0341047437535 808.73146540953 840.514893959329 774.1926592422798 880.7900071556829 C 739.6538530750296 921.0651203520368 742.3807445569672 981.2531250336324 780.4199999999998 1018.2399999999999 C 781.2125286160071 1019.0104372260139 781.2304372260139 1020.2774713839926 780.46 1021.0699999999998 C 779.689562773986 1021.862528616007 778.4225286160072 1021.8804372260139 777.63 1021.1099999999999 C 741.8432016592768 986.3408316206065 735.6972484305243 931.0943137401472 762.9678090958305 889.3102674273014 C 790.2383697611368 847.5262211144557 843.2846938491688 830.9118303716868 889.5186144134666 849.6738823524374 C 935.7525349777645 868.435934333188 962.2200884134413 917.317618982303 952.6613535128599 966.2892494674583 C 943.1026186122785 1015.2608799526137 900.1957914379748 1050.601432591761 850.3000000000001 1050.6 Z" stroke-linecap="round" />
</g>
		<g transform="matrix(1 0 0 1 310.31 449.08)"  >
<path style="stroke: none; stroke-width: 1; stroke-dasharray: none; stroke-linecap: butt; stroke-dashoffset: 0; stroke-linejoin: miter; stroke-miterlimit: 4; fill: rgb(247,80,40); fill-rule: nonzero; opacity: 1;" vector-effect="non-scaling-stroke"  transform=" translate(-850.31, -989.08)" d="M 924.64 989.07 C 909.340215634828 1015.6679308722607 880.9944150719273 1032.0635548718092 850.31 1032.0635548718092 C 819.6255849280727 1032.0635548718092 791.279784365172 1015.6679308722607 775.98 989.07 C 791.2838616367025 962.477452366059 819.6282176094876 946.0864970515353 850.31 946.0864970515353 C 880.9917823905124 946.0864970515353 909.3361383632976 962.477452366059 924.64 989.07 Z" stroke-linecap="round" />
</g>
		<g transform="matrix(1 0 0 1 310.31 372.31)"  >
<circle style="stroke: none; stroke-width: 1; stroke-dasharray: none; stroke-linecap: butt; stroke-dashoffset: 0; stroke-linejoin: miter; stroke-miterlimit: 4; fill: rgb(247,80,40); fill-rule: nonzero; opacity: 1;" vector-effect="non-scaling-stroke"  cx="0" cy="0" r="37.51" />
</g>
		<g transform="matrix(1 0 0 1 -349.62 287.72)"  >
<path style="stroke: none; stroke-width: 1; stroke-dasharray: none; stroke-linecap: butt; stroke-dashoffset: 0; stroke-linejoin: miter; stroke-miterlimit: 4; fill: rgb(247,80,40); fill-rule: nonzero; opacity: 1;" vector-effect="non-scaling-stroke"  transform=" translate(-190.38, -827.72)" d="M 118.44 928.33 C 117.56848340267358 928.3323065008738 116.79581044096496 927.7699947643424 116.53 926.94 L 97.42 867.3100000000001 C 97.25681289002556 866.8034539850274 97.30223983648268 866.2527575291283 97.54622624782645 865.7797992548311 C 97.79021265917021 865.306840980534 98.212636349258 864.950626971746 98.72 864.7900000000001 C 99.77203944270572 864.4566041999667 100.89530255643858 865.038373940147 101.23 866.09 L 119.73 923.82 L 303.73 864.82 L 261 731.61 L 77 790.55 L 92.77 839.75 C 92.97262370259745 840.7424398784167 92.40130092748572 841.7296715932454 91.43985820216068 842.0484523377166 C 90.47841547683562 842.3672330821878 89.43044708639646 841.9169016211889 89 841 L 72.63 789.9 C 72.46638857705436 789.3947701785452 72.51043269954606 788.8452128480802 72.75242189054048 788.3724897773004 C 72.99441108153489 787.8997667065207 73.41447446272119 787.5426954251495 73.92 787.38 L 261.7 727.19 C 262.74912095656015 726.8557644769934 263.8710730073671 727.4323852521094 264.21 728.48 L 308.13 865.55 C 308.29318710997444 866.0565460149726 308.2477601635173 866.6072424708717 308.0037737521736 867.0802007451689 C 307.7597873408298 867.553159019466 307.33736365074196 867.909373028254 306.83 868.0699999999999 C 110.32999999999998 930.9999999999999 118.91999999999999 928.3299999999999 118.44 928.3299999999999 Z" stroke-linecap="round" />
</g>
		<g transform="matrix(1 0 0 1 -371.59 249.62)"  >
<path style="stroke: none; stroke-width: 1; stroke-dasharray: none; stroke-linecap: butt; stroke-dashoffset: 0; stroke-linejoin: miter; stroke-miterlimit: 4; fill: rgb(247,80,40); fill-rule: nonzero; opacity: 1;" vector-effect="non-scaling-stroke"  transform=" translate(-168.41, -789.62)" d="M 175.41 848.52 L 73.53 791 C 72.56902453529442 790.4477152501692 72.2377152501692 789.2209754647056 72.78999999999999 788.26 C 73.34228474983078 787.2990245352944 74.56902453529442 786.9677152501691 75.53 787.52 L 177.37 845 C 183.19935277875527 848.3165148010661 190.1505055640459 849.0425550672803 196.5393754027471 847.002220185697 C 202.92824524144834 844.9618853041135 208.17192213933157 840.341332079312 211 834.26 L 260.48 728.26 C 260.94668061360704 727.2576031790571 262.1376031790572 726.823319386393 263.14000000000004 727.29 C 264.1423968209429 727.756680613607 264.57668061360704 728.9476031790572 264.11 729.95 L 214.64 836 C 211.3177224908633 843.0723158580604 205.19975618377245 848.4412161510628 197.75587368470116 850.8168829593312 C 190.3119911856299 853.1925497675998 182.21495970454964 852.3602738005699 175.40999999999997 848.52 Z" stroke-linecap="round" />
</g>
		<g transform="matrix(1 0 0 1 -305.45 22.79)"  >
<path style="stroke: none; stroke-width: 1; stroke-dasharray: none; stroke-linecap: butt; stroke-dashoffset: 0; stroke-linejoin: miter; stroke-miterlimit: 4; fill: rgb(247,80,40); fill-rule: nonzero; opacity: 1;" vector-effect="non-scaling-stroke"  transform=" translate(-234.55, -562.79)" d="M 306.22 868.16 C 305.41 868.16 311.22 871.31 219.85000000000002 819.6899999999999 C 218.88902453529442 819.1377152501691 218.55771525016922 817.9109754647055 219.11 816.9499999999999 C 219.6622847498308 815.9890245352943 220.88902453529442 815.6577152501691 221.85000000000002 816.2099999999999 L 307.24 864.42 C 308.03593053564884 864.8707587330944 308.4246223524171 865.8040548089455 308.1839470256744 866.686531007002 C 307.94327169893165 867.5690072050587 307.13457151059157 868.175741824971 306.22 868.16 Z M 118.43 928.33 C 117.74569101128779 928.3298676951939 117.10895268720151 927.9798760958536 116.74208870925673 927.402217346051 C 116.37522473131196 926.8245585962485 116.32916866157161 926.0994319511657 116.62 925.48 L 158.09 836.63 C 158.3686779319317 835.9463552299438 159.00130617162966 835.4718286388985 159.7356264345473 835.3956360353238 C 160.46994669746493 835.319443431749 161.18652255298153 835.6539774637445 161.59962190012982 836.2658438631787 C 162.01272124727808 836.8777102626129 162.05515390487045 837.6673895930008 161.71 838.32 L 120.24000000000001 927.1700000000001 C 119.91344138732607 927.8756251069599 119.20752393078575 928.3280362945768 118.43 928.33 Z M 352.67 285.31 L 264.6 262.65 L 264.6 197.24999999999997 L 330.01 197.24999999999997 L 352.67 285.30999999999995 z" stroke-linecap="round" />
</g>
		<g transform="matrix(1 0 0 1 -314.29 -381.64)"  >
<circle style="stroke: none; stroke-width: 1; stroke-dasharray: none; stroke-linecap: butt; stroke-dashoffset: 0; stroke-linejoin: miter; stroke-miterlimit: 4; fill: rgb(247,80,40); fill-rule: nonzero; opacity: 1;" vector-effect="non-scaling-stroke"  cx="0" cy="0" r="126.96" />
</g>
		<g transform="matrix(1 0 0 1 -313.91 -381.22)"  >
<path style="stroke: none; stroke-width: 1; stroke-dasharray: none; stroke-linecap: butt; stroke-dashoffset: 0; stroke-linejoin: miter; stroke-miterlimit: 4; fill: rgb(255,255,255); fill-rule: nonzero; opacity: 1;" vector-effect="non-scaling-stroke"  transform=" translate(-226.09, -158.78)" d="M 250.52 188.75 C 256.88 188.44 253.98000000000002 178.89 261.03000000000003 172.09 C 268.08000000000004 165.29000000000002 311.92 189.51 291.96000000000004 210.93 C 272.00000000000006 232.35000000000002 247.42000000000004 237.4 201.47000000000003 191.93 C 155.52 146.46 145.19000000000003 125.64 163.87000000000003 99.41000000000001 C 182.55000000000004 73.18000000000002 214.31 114 209.82 125 C 205.32999999999998 136 193.47 134.67 193.51 138.77 C 193.63 151.73000000000002 228.07 189.85000000000002 250.51999999999998 188.75 Z" stroke-linecap="round" />
</g>
</g>
</g>
</svg>