<svg width="62" height="70" viewBox="0 0 62 70" fill="none" xmlns="http://www.w3.org/2000/svg">
<rect x="-7" y="-3" width="76" height="76" fill="white"/>
<path d="M13.8044 17.7824V10.0731C13.8044 8.29917 14.9114 6.69862 16.5787 6.07174L29.3831 1.27009C30.3434 0.909969 31.4104 0.909969 32.3841 1.27009L45.1885 6.07174C46.8557 6.69862 47.9628 8.28583 47.9628 10.0731V17.7824H47.9228C47.9494 18.1292 47.9628 18.4893 47.9628 18.8495V24.1846C47.9628 33.6145 40.3202 41.2571 30.8903 41.2571C21.4604 41.2571 13.8177 33.6145 13.8177 24.1846V18.8495C13.8177 18.4893 13.8311 18.1292 13.8577 17.7824H13.8044ZM20.2066 24.1846C20.2066 30.08 24.9816 34.855 30.8769 34.855C36.7723 34.855 41.5472 30.08 41.5472 24.1846V22.0506H20.2066V24.1846ZM15.9251 44.4182C17.3256 43.9647 18.8328 44.4716 19.8465 45.552L29.3164 55.6221C30.1567 56.5157 31.5838 56.5157 32.4241 55.6221L41.894 45.552C42.9077 44.4716 44.4149 43.9647 45.8154 44.4182C54.485 47.2059 60.7538 55.3153 60.7538 64.9053C60.7538 67.1727 58.9132 69 56.6591 69H5.09474C2.84063 69 1 67.1594 1 64.9053C1 55.3153 7.26882 47.2059 15.9251 44.4182ZM28.7429 7.1121V9.24616H26.6088C26.0219 9.24616 25.5418 9.72633 25.5418 10.3132V12.4473C25.5418 13.0341 26.0219 13.5143 26.6088 13.5143H28.7429V15.6484C28.7429 16.2352 29.223 16.7154 29.8099 16.7154H31.9439C32.5308 16.7154 33.011 16.2352 33.011 15.6484V13.5143H35.145C35.7319 13.5143 36.2121 13.0341 36.2121 12.4473V10.3132C36.2121 9.72633 35.7319 9.24616 35.145 9.24616H33.011V7.1121C33.011 6.52523 32.5308 6.04506 31.9439 6.04506H29.8099C29.223 6.04506 28.7429 6.52523 28.7429 7.1121Z" fill="black"/>
</svg>
