<svg width="76" height="76" viewBox="0 0 76 76" fill="none" xmlns="http://www.w3.org/2000/svg">
<rect width="76" height="76" fill="white"/>
<path d="M20.125 20.5C20.125 25.1413 21.9687 29.5925 25.2506 32.8744C28.5325 36.1563 32.9837 38 37.625 38C42.2663 38 46.7175 36.1563 49.9994 32.8744C53.2813 29.5925 55.125 25.1413 55.125 20.5C55.125 15.8587 53.2813 11.4075 49.9994 8.12563C46.7175 4.84375 42.2663 3 37.625 3C32.9837 3 28.5325 4.84375 25.2506 8.12563C21.9687 11.4075 20.125 15.8587 20.125 20.5ZM33.0449 47.8711L35.5879 52.1094L31.0352 69.0488L26.1133 48.9648C25.8398 47.8574 24.7734 47.1328 23.666 47.4199C14.0957 49.8125 7 58.4805 7 68.8027C7 71.127 8.88672 73 11.1973 73H29.2168C29.2168 73 29.2168 73 29.2305 73H29.9688H45.2812H46.0332C46.0332 73 46.0332 73 46.0469 73H64.0527C66.377 73 68.25 71.1133 68.25 68.8027C68.25 58.4805 61.1543 49.8125 51.584 47.4199C50.4766 47.1465 49.4102 47.8711 49.1367 48.9648L44.2148 69.0488L39.6621 52.1094L42.2051 47.8711C43.0801 46.4082 42.0273 44.5625 40.332 44.5625H37.625H34.9316C33.2363 44.5625 32.1836 46.4219 33.0586 47.8711H33.0449Z" fill="black"/>
</svg>
